<?xml version="1.0" encoding="utf-8"?>
<svg width="30px" height="30px" viewBox="0 0 30 30" version="1.1" xmlns:xlink="http://www.w3.org/1999/xlink" xmlns="http://www.w3.org/2000/svg">
  <defs>
    <path d="M0 0L30 0L30 30L0 30L0 0Z" id="path_1" />
    <clipPath id="mask_1">
      <use xlink:href="#path_1" />
    </clipPath>
  </defs>
  <g id="Cancel-icon">
    <path d="M0 0L30 0L30 30L0 30L0 0Z" id="Background" fill="none" fill-rule="evenodd" stroke="none" />
    <g clip-path="url(#mask_1)">
      <path d="M14.0625 0C6.30798 0 0 6.30798 0 14.0625C0 21.817 6.30798 28.125 14.0625 28.125C21.817 28.125 28.125 21.817 28.125 14.0625C28.125 6.30798 21.817 0 14.0625 0L14.0625 0ZM14.0625 0.9375C21.2988 0.9375 27.1875 6.82617 27.1875 14.0625C27.1875 21.2988 21.2988 27.1875 14.0625 27.1875C6.82617 27.1875 0.9375 21.2988 0.9375 14.0625C0.9375 6.82617 6.82617 0.9375 14.0625 0.9375L14.0625 0.9375ZM8.64624 6.38123C8.40637 6.38123 8.16467 6.47461 7.9834 6.65771L6.65771 7.9834C6.2915 8.34778 6.2915 8.94287 6.65771 9.30908L11.4111 14.0625L6.65771 18.8159C6.2915 19.1821 6.2915 19.7772 6.65771 20.1416L7.9834 21.4673C8.34778 21.8335 8.94287 21.8335 9.30908 21.4673L14.0625 16.7139L18.8159 21.4673C18.999 21.6504 19.2389 21.7438 19.4806 21.7438C19.7205 21.7438 19.9603 21.6504 20.1416 21.4673L21.4673 20.1416C21.8335 19.7772 21.8335 19.1821 21.4673 18.8159L16.7139 14.0625L21.4673 9.30908C21.8335 8.94287 21.8335 8.34778 21.4673 7.9834L20.1416 6.65771C19.7772 6.2915 19.1821 6.2915 18.8159 6.65771L14.0625 11.4111L9.30908 6.65771C9.12598 6.47461 8.88611 6.38123 8.64624 6.38123L8.64624 6.38123ZM8.64441 7.31873L14.0625 12.7368L19.4806 7.31873L20.8063 8.64441L15.3882 14.0625L20.8063 19.4806L19.4806 20.8063L14.0625 15.3882L8.64441 20.8063L7.31873 19.4806L12.7368 14.0625L7.31873 8.64441L8.64441 7.31873ZM22.348 9.94629C22.229 9.94629 22.11 9.99207 22.0166 10.0854C21.8335 10.2667 21.8335 10.5634 22.0166 10.7465L22.6813 11.4111C22.771 11.5027 22.8918 11.5485 23.0127 11.5485C23.1317 11.5485 23.2526 11.5027 23.3423 11.4111C23.5254 11.228 23.5254 10.9314 23.3423 10.7483L22.6813 10.0854C22.5879 9.99207 22.4689 9.94629 22.348 9.94629L22.348 9.94629ZM20.6909 11.6034C20.5719 11.6034 20.4529 11.651 20.3613 11.7426C20.1764 11.9257 20.1764 12.2223 20.3613 12.4054L21.0223 13.0682C21.1139 13.1598 21.2347 13.2056 21.3556 13.2056C21.4746 13.2056 21.5955 13.1598 21.687 13.0682C21.8701 12.8851 21.8701 12.5885 21.687 12.4054L21.0223 11.7426C20.9308 11.651 20.8118 11.6034 20.6909 11.6034L20.6909 11.6034ZM8.42834 13.2623C8.3075 13.2623 8.18665 13.3081 8.09509 13.3997C7.91199 13.5828 7.91199 13.8794 8.09509 14.0625L8.75977 14.7253C8.85132 14.8169 8.97034 14.8627 9.09119 14.8627C9.21204 14.8627 9.33105 14.8169 9.42261 14.7253C9.60571 14.5422 9.60571 14.2456 9.42261 14.0625L8.75977 13.3997C8.66638 13.3081 8.54736 13.2623 8.42834 13.2623L8.42834 13.2623ZM19.0338 13.2623C18.913 13.2623 18.7939 13.3081 18.7024 13.3997C18.5193 13.5828 18.5193 13.8794 18.7024 14.0625L19.3652 14.7253C19.4568 14.8169 19.5776 14.8627 19.6967 14.8627C19.8175 14.8627 19.9384 14.8169 20.0299 14.7253C20.213 14.5422 20.213 14.2456 20.0299 14.0625L19.3652 13.3997C19.2737 13.3081 19.1547 13.2623 19.0338 13.2623L19.0338 13.2623ZM6.76941 14.9194C6.65039 14.9194 6.53137 14.9652 6.43799 15.0568C6.25488 15.2399 6.25488 15.5365 6.43799 15.7196L7.10266 16.3824C7.19238 16.474 7.31323 16.5198 7.43408 16.5198C7.5531 16.5198 7.67395 16.474 7.76367 16.3824C7.94861 16.1993 7.94861 15.9027 7.76367 15.7196L7.10266 15.0568C7.00928 14.9652 6.89026 14.9194 6.76941 14.9194L6.76941 14.9194ZM5.1123 16.5765C4.99329 16.5765 4.87427 16.6223 4.78271 16.7139C4.59778 16.897 4.59778 17.1936 4.78271 17.3767L5.44373 18.0396C5.53528 18.1311 5.65613 18.1787 5.77698 18.1787C5.896 18.1787 6.01685 18.1311 6.1084 18.0396C6.2915 17.8583 6.2915 17.5616 6.1084 17.3785L5.44373 16.7139C5.35217 16.6223 5.23315 16.5765 5.1123 16.5765L5.1123 16.5765Z" transform="translate(0.9375 0.9375)" id="Shape" fill="#000000" fill-rule="evenodd" stroke="none" />
    </g>
  </g>
</svg>