<?xml version="1.0" encoding="utf-8"?>
<svg width="33px" height="33px" viewBox="0 0 33 33" version="1.1" xmlns:xlink="http://www.w3.org/1999/xlink" xmlns="http://www.w3.org/2000/svg">
  <defs>
    <path d="M0 0L32 0L32 32L0 32L0 0Z" id="path_1" />
    <clipPath id="mask_1">
      <use xlink:href="#path_1" />
    </clipPath>
  </defs>
  <g id="Ok-icon" transform="translate(0.25 0.25)">
    <path d="M0 0L32 0L32 32L0 32L0 0Z" id="Background" fill="none" fill-rule="evenodd" stroke="none" />
    <g clip-path="url(#mask_1)">
      <path d="M13.2 0C5.91406 0 0 5.91406 0 13.2C0 20.4859 5.91406 26.4 13.2 26.4C20.4859 26.4 26.4 20.4859 26.4 13.2C26.4 5.91406 20.4859 0 13.2 0L13.2 0ZM13.2 0.799988C20.0532 0.799988 25.6 6.34686 25.6 13.2C25.6 20.0531 20.0532 25.6 13.2 25.6C6.34692 25.6 0.800049 20.0531 0.800049 13.2C0.800049 6.34686 6.34692 0.799988 13.2 0.799988L13.2 0.799988ZM13.2001 2C12.9797 2 12.8 2.17969 12.8 2.4C12.8 2.62031 12.9797 2.8 13.2001 2.8C13.4204 2.8 13.6001 2.62031 13.6001 2.4C13.6001 2.17969 13.4204 2 13.2001 2L13.2001 2ZM15.3172 2.20626C15.1219 2.20158 14.9532 2.33751 14.9141 2.5297C14.8719 2.74533 15.0125 2.95626 15.2297 3.00001C15.4453 3.0422 15.6563 2.90158 15.7 2.68595C15.7422 2.46876 15.6016 2.25783 15.386 2.21408C15.3625 2.21095 15.3406 2.20783 15.3172 2.20626L15.3172 2.20626ZM11.0953 2.20782C11.0688 2.20782 11.0422 2.20939 11.0156 2.21407C10.7985 2.25782 10.6578 2.46876 10.7016 2.68595C10.7219 2.78907 10.7828 2.88126 10.8719 2.94064C10.9594 2.99845 11.0672 3.02032 11.1719 3.00001C11.3891 2.95626 11.5297 2.74689 11.486 2.5297C11.4485 2.34376 11.286 2.20939 11.0953 2.20782L11.0953 2.20782ZM9.07034 2.82187C9.01722 2.82187 8.96409 2.83124 8.91409 2.85156C8.7094 2.93749 8.61253 3.17031 8.69847 3.375C8.78284 3.57968 9.01565 3.67656 9.22034 3.59218C9.42503 3.50625 9.5219 3.27343 9.43753 3.06874C9.37503 2.92031 9.23128 2.82343 9.07034 2.82187L9.07034 2.82187ZM17.3422 2.82188C17.1765 2.81876 17.0265 2.91563 16.9625 3.06876C16.8781 3.27344 16.975 3.50626 17.1797 3.5922C17.3843 3.67657 17.6172 3.57969 17.7015 3.37501C17.7875 3.17032 17.6906 2.93751 17.4859 2.85157C17.4406 2.83282 17.3906 2.82344 17.3422 2.82188L17.3422 2.82188ZM7.20466 3.81876C7.12341 3.81876 7.04372 3.84219 6.97654 3.88751C6.79372 4.00938 6.74372 4.25782 6.86716 4.44219C6.98904 4.625 7.23748 4.675 7.42185 4.55157C7.60623 4.42969 7.65467 4.18126 7.53279 3.99844C7.45935 3.88751 7.33591 3.82032 7.20466 3.81876L7.20466 3.81876ZM19.2062 3.81875C19.0703 3.81719 18.9422 3.88438 18.8672 3.99844C18.7437 4.18125 18.7937 4.42969 18.9765 4.55156C19.1609 4.675 19.4093 4.625 19.5312 4.44219C19.5906 4.35469 19.6125 4.24531 19.5921 4.14219C19.5718 4.0375 19.5109 3.94531 19.4218 3.8875C19.3578 3.84375 19.2843 3.82031 19.2062 3.81875L19.2062 3.81875ZM5.56875 5.16251C5.46094 5.16251 5.35625 5.20469 5.28125 5.28126C5.125 5.43594 5.125 5.69063 5.28125 5.84532C5.43594 6.00157 5.69063 6.00157 5.84531 5.84532C6.00156 5.69063 6.00156 5.43594 5.84531 5.28126C5.77188 5.20626 5.67344 5.16407 5.56875 5.16251L5.56875 5.16251ZM20.8422 5.16251C20.7344 5.16251 20.6297 5.20469 20.5547 5.28126C20.3984 5.43594 20.3984 5.69063 20.5547 5.84532C20.7094 6.00157 20.9641 6.00157 21.1187 5.84532C21.275 5.69063 21.275 5.43594 21.1187 5.28126C21.0453 5.20626 20.9469 5.16407 20.8422 5.16251L20.8422 5.16251ZM22.1844 6.8C22.1032 6.79844 22.025 6.82188 21.9579 6.86719C21.775 6.98906 21.725 7.2375 21.8485 7.42031C21.9704 7.60469 22.2188 7.65469 22.4016 7.53125C22.586 7.40781 22.636 7.16094 22.5125 6.97656C22.4391 6.86719 22.3157 6.8 22.1844 6.8L22.1844 6.8ZM4.22657 6.8C4.09064 6.79688 3.96251 6.86406 3.88751 6.97656C3.76564 7.16094 3.81407 7.40938 3.99845 7.53125C4.18282 7.65469 4.4297 7.60469 4.55314 7.42188C4.67501 7.2375 4.62658 6.98906 4.4422 6.86719C4.37814 6.825 4.3047 6.80156 4.22657 6.8L4.22657 6.8ZM17.8078 8.57813L17.525 8.86094L11.9688 14.4187L9.25628 11.9453L7.43909 14.0422L12.0938 18.2062L19.7657 10.5359L17.8078 8.57813ZM23.1812 8.6672C23.1281 8.66564 23.075 8.67658 23.025 8.69689C22.8203 8.78126 22.7234 9.01564 22.8078 9.21876C22.8937 9.42344 23.1266 9.52032 23.3312 9.43594C23.5359 9.35157 23.6328 9.1172 23.5484 8.91251C23.4859 8.76564 23.3422 8.6672 23.1812 8.6672L23.1812 8.6672ZM3.23124 8.66719C3.06561 8.66406 2.91561 8.76094 2.85311 8.91406C2.76874 9.11875 2.86561 9.35156 3.06874 9.4375C3.27342 9.52188 3.5078 9.425 3.59217 9.22031C3.67655 9.01563 3.57967 8.78281 3.37499 8.69844C3.32967 8.67813 3.28124 8.66875 3.23124 8.66719L3.23124 8.66719ZM17.8078 9.70938L18.6343 10.5359L12.064 17.1063L8.56091 13.9703L9.32341 13.0891L11.9937 15.5234L17.8078 9.70938ZM23.7937 10.6937C23.7671 10.6922 23.7406 10.6953 23.714 10.7C23.4984 10.7437 23.3577 10.9547 23.3999 11.1703C23.4437 11.3875 23.6546 11.5281 23.8702 11.4859C24.0874 11.4422 24.228 11.2312 24.1859 11.0141C24.1484 10.8281 23.9843 10.6937 23.7937 10.6937L23.7937 10.6937ZM2.61878 10.6938C2.42346 10.6891 2.25471 10.8234 2.21565 11.0141C2.19534 11.1188 2.21565 11.2281 2.27502 11.3156C2.3344 11.4047 2.42659 11.4656 2.53128 11.4859C2.6344 11.5062 2.74221 11.4844 2.83128 11.4266C2.91878 11.3672 2.97971 11.275 3.00003 11.1703C3.04378 10.9547 2.90315 10.7438 2.68753 10.7C2.66409 10.6969 2.64221 10.6938 2.61878 10.6938L2.61878 10.6938ZM2.4 12.8C2.17969 12.8 2 12.9797 2 13.2C2 13.4203 2.17969 13.6 2.4 13.6C2.62031 13.6 2.8 13.4203 2.8 13.2C2.8 12.9797 2.62031 12.8 2.4 12.8L2.4 12.8ZM24 12.8C23.7797 12.8 23.6 12.9797 23.6 13.2C23.6 13.4203 23.7797 13.6 24 13.6C24.2203 13.6 24.4 13.4203 24.4 13.2C24.4 12.9797 24.2203 12.8 24 12.8L24 12.8ZM2.60937 14.9063C2.5828 14.9063 2.55624 14.9094 2.52968 14.9141C2.31249 14.9578 2.17187 15.1688 2.21562 15.3859C2.25937 15.6016 2.46874 15.7422 2.68593 15.7C2.90312 15.6563 3.04374 15.4453 2.99999 15.2297C2.96249 15.0422 2.79999 14.9078 2.60937 14.9063L2.60937 14.9063ZM23.8031 14.9062C23.6077 14.9016 23.439 15.0375 23.3999 15.2297C23.3577 15.4453 23.4984 15.6562 23.714 15.7C23.9312 15.7422 24.1421 15.6016 24.1859 15.3859C24.228 15.1687 24.0874 14.9578 23.8702 14.9141C23.8484 14.9109 23.8265 14.9078 23.8031 14.9062L23.8031 14.9062ZM23.1875 16.9313C23.0219 16.9281 22.8719 17.0266 22.8078 17.1797C22.7234 17.3828 22.8203 17.6172 23.025 17.7016C23.2297 17.7859 23.4625 17.6891 23.5484 17.4859C23.6328 17.2813 23.5359 17.0469 23.3312 16.9625C23.2859 16.9438 23.2359 16.9328 23.1875 16.9313L23.1875 16.9313ZM3.22505 16.9328C3.17193 16.9328 3.1188 16.9422 3.0688 16.9625C2.97193 17.0031 2.8938 17.0812 2.85318 17.1797C2.81255 17.2781 2.81255 17.3875 2.85161 17.4859C2.93755 17.6906 3.17036 17.7875 3.37505 17.7016C3.47349 17.6625 3.55161 17.5844 3.59224 17.4859C3.63286 17.3875 3.63286 17.2781 3.59224 17.1797C3.5313 17.0312 3.38599 16.9344 3.22505 16.9328L3.22505 16.9328ZM22.1875 18.8C22.0516 18.7969 21.9235 18.8641 21.8485 18.9766C21.725 19.1609 21.775 19.4078 21.9579 19.5312C22.0454 19.5906 22.1547 19.6125 22.2579 19.5906C22.3625 19.5703 22.4547 19.5094 22.5125 19.4203C22.636 19.2375 22.586 18.9891 22.4016 18.8672C22.3391 18.8234 22.2641 18.8 22.1875 18.8L22.1875 18.8ZM4.22497 18.8C4.14372 18.7984 4.0656 18.8219 3.99841 18.8672C3.8156 18.9906 3.7656 19.2375 3.88747 19.4219C4.01091 19.6047 4.25935 19.6547 4.44372 19.5312C4.62653 19.4094 4.67653 19.1609 4.5531 18.9766C4.47966 18.8672 4.35622 18.8016 4.22497 18.8L4.22497 18.8ZM5.56875 20.4375C5.46094 20.4359 5.35625 20.4781 5.28125 20.5547C5.125 20.7094 5.125 20.9641 5.28125 21.1187C5.43594 21.275 5.69063 21.275 5.84531 21.1187C6.00156 20.9641 6.00156 20.7094 5.84531 20.5547C5.77188 20.4797 5.67344 20.4375 5.56875 20.4375L5.56875 20.4375ZM20.8422 20.4375C20.7344 20.4359 20.6297 20.4781 20.5547 20.5547C20.3984 20.7094 20.3984 20.9641 20.5547 21.1187C20.7094 21.275 20.9641 21.275 21.1187 21.1187C21.275 20.9641 21.275 20.7094 21.1187 20.5547C21.0453 20.4797 20.9469 20.4375 20.8422 20.4375L20.8422 20.4375ZM7.20785 21.7797C7.07191 21.7766 6.94379 21.8437 6.86879 21.9562C6.74535 22.1406 6.79535 22.3891 6.97973 22.5125C7.16254 22.6344 7.41097 22.5844 7.53285 22.4016C7.65629 22.2172 7.60629 21.9703 7.42347 21.8469C7.35941 21.8047 7.28441 21.7797 7.20785 21.7797L7.20785 21.7797ZM19.2047 21.7797C19.1234 21.7781 19.0453 21.8015 18.9781 21.8453C18.8891 21.9047 18.8281 21.9969 18.8078 22.1015C18.7875 22.2047 18.8094 22.314 18.8688 22.4015C18.9906 22.5844 19.2391 22.6344 19.4234 22.5125C19.6062 22.389 19.6562 22.1406 19.5328 21.9562C19.4609 21.8469 19.3375 21.7797 19.2047 21.7797L19.2047 21.7797ZM9.07658 22.7766C8.91095 22.7734 8.76095 22.8719 8.69845 23.025C8.61407 23.2281 8.71095 23.4625 8.91407 23.5468C9.11876 23.6312 9.35314 23.5343 9.43751 23.3312C9.52189 23.1265 9.42501 22.8922 9.22033 22.8078C9.17501 22.7891 9.12658 22.7781 9.07658 22.7766L9.07658 22.7766ZM17.3359 22.7766C17.2828 22.7766 17.2296 22.7875 17.1812 22.8078C17.0828 22.8484 17.0046 22.9266 16.964 23.0234C16.9234 23.1219 16.9234 23.2328 16.9625 23.3313C17.0484 23.5344 17.2812 23.6313 17.4859 23.5469C17.5843 23.5063 17.6625 23.4281 17.7031 23.3313C17.7437 23.2328 17.7437 23.1219 17.7031 23.025C17.6421 22.875 17.4968 22.7781 17.3359 22.7766L17.3359 22.7766ZM11.1047 23.3922C10.9094 23.3875 10.7391 23.5234 10.7016 23.714C10.6578 23.9312 10.7985 24.1406 11.0156 24.1844C11.2328 24.2281 11.4422 24.0875 11.486 23.8703C11.5297 23.6531 11.3891 23.4437 11.1719 23.4C11.15 23.3953 11.1266 23.3922 11.1047 23.3922L11.1047 23.3922ZM15.3078 23.3937C15.2813 23.3922 15.2547 23.3953 15.2297 23.4C15.0125 23.4437 14.8719 23.6531 14.9141 23.8703C14.936 23.975 14.9969 24.0656 15.0844 24.125C15.1735 24.1844 15.2813 24.2062 15.386 24.1859C15.4891 24.164 15.5813 24.1031 15.6407 24.0156C15.6985 23.9266 15.7203 23.8187 15.7 23.7141C15.6625 23.5281 15.4985 23.3937 15.3078 23.3937L15.3078 23.3937ZM13.2001 23.6C12.9797 23.6 12.8 23.7797 12.8 24C12.8 24.2203 12.9797 24.4 13.2001 24.4C13.4204 24.4 13.6001 24.2203 13.6001 24C13.6001 23.7797 13.4204 23.6 13.2001 23.6L13.2001 23.6Z" transform="translate(2.7988281 2.800293)" id="Shape" fill="#000000" fill-opacity="0.8" fill-rule="evenodd" stroke="#000000" stroke-width="0.5" />
    </g>
  </g>
</svg>